<svg xmlns="http://www.w3.org/2000/svg" viewBox="0 0 56 56" fill="none">
  <rect width="56" height="56" rx="6" fill="#24292E"/>
  <path fill-rule="evenodd" clip-rule="evenodd" d="M28 10C18.06 10 10 18.08 10 28.04c0 7.97 5.14 14.73 12.26 17.12.9.17 1.23-.39 1.23-.87 0-.43-.02-1.85-.02-3.36-4.51.83-5.67-1.1-6.03-2.11-.2-.52-.57-2.11-1.22-2.54-.42-.23-1.02-.79-.01-.8.94-.01 1.61.87 1.84 1.23 1.07 1.81 2.79 1.3 3.47.99.11-.78.42-1.3.76-1.6-2.66-.3-5.44-1.33-5.44-5.92 0-1.3.46-2.38 1.22-3.22-.12-.3-.53-1.53.12-3.18 0 0 1-.32 3.28 1.23.95-.27 1.97-.4 2.99-.4 1.01 0 2.03.13 2.98.4 2.28-1.56 3.28-1.23 3.28-1.23.65 1.65.24 2.88.12 3.18.76.84 1.22 1.91 1.22 3.22 0 4.6-2.79 5.61-5.45 5.91.43.37.8 1.1.8 2.22 0 1.6-.01 2.9-.01 3.3 0 .48.33 1.04 1.24.87C40.86 42.77 46 35.99 46 28.04 46 18.08 37.94 10 28 10z" fill="white"/>
</svg>
